<?xml version="1.0" standalone="no"?>
<!DOCTYPE svg PUBLIC "-//W3C//DTD SVG 20010904//EN"
 "http://www.w3.org/TR/2001/REC-SVG-20010904/DTD/svg10.dtd">
<svg version="1.0" xmlns="http://www.w3.org/2000/svg"
 width="750.000000pt" height="500.000000pt" viewBox="0 0 750.000000 500.000000"
 preserveAspectRatio="xMidYMid meet">

<g transform="translate(0.000000,500.000000) scale(0.100000,-0.100000)"
fill="#000000" stroke="none">
<path d="M0 4375 l0 -625 3750 0 3750 0 0 625 0 625 -3750 0 -3750 0 0 -625z"/>
<path d="M2473 3485 c-7 -8 -13 -18 -13 -24 0 -5 6 -11 13 -14 9 -3 8 -12 -5
-35 -19 -32 -21 -82 -3 -82 5 0 3 -4 -5 -10 -9 -5 -19 -5 -26 0 -6 6 -13 8
-16 5 -2 -3 -19 -1 -36 4 -21 6 -32 6 -32 0 0 -6 -4 -8 -8 -5 -4 2 -14 1 -22
-4 -9 -5 -19 -5 -26 1 -8 7 -15 6 -20 -2 -4 -8 -3 -9 4 -5 7 4 12 3 12 -1 0
-18 -68 -44 -111 -42 -24 1 -61 -5 -81 -14 -21 -9 -38 -13 -38 -10 0 3 -10 -6
-23 -20 -12 -15 -28 -27 -34 -27 -7 0 -15 -4 -18 -10 -3 -5 0 -7 9 -4 11 4 13
0 9 -15 -3 -12 -9 -21 -14 -21 -4 0 -2 -20 5 -45 10 -32 11 -43 3 -38 -7 4 -6
-1 2 -10 7 -9 11 -24 7 -32 -4 -11 3 -19 20 -25 14 -6 28 -19 31 -29 3 -11 24
-32 46 -48 56 -38 79 -62 72 -73 -4 -6 -1 -10 4 -10 6 0 11 -11 11 -25 0 -19
7 -26 33 -34 24 -7 3 -9 -90 -10 l-123 -1 0 -176 0 -176 -27 6 c-16 3 -50 8
-76 12 l-48 6 2 115 c2 85 6 116 16 120 7 3 13 20 13 38 0 29 -4 34 -27 37
l-26 3 26 31 c15 18 27 37 27 43 0 22 -40 51 -70 51 -23 0 -30 4 -30 20 0 11
-4 20 -10 20 -9 0 -14 -14 -11 -32 0 -5 -14 -8 -32 -8 -27 0 -77 -28 -77 -43
0 -2 11 -18 25 -37 30 -41 31 -50 5 -50 -16 0 -20 -7 -20 -31 0 -18 7 -37 17
-44 15 -11 15 -15 4 -29 -7 -9 -10 -16 -5 -16 5 0 8 -49 6 -109 l-3 -110 -45
-22 c-64 -31 -71 -52 -40 -122 21 -48 30 -58 56 -63 28 -6 30 -9 30 -53 0 -45
-1 -47 -46 -71 l-46 -24 5 -55 c3 -31 12 -60 20 -66 7 -5 18 -19 25 -30 10
-19 11 -19 21 8 7 17 7 36 1 51 -8 23 -5 36 11 36 4 0 9 -52 11 -115 2 -63 0
-115 -4 -115 -4 0 -5 -7 -1 -16 4 -10 0 -20 -10 -26 -10 -5 -17 -21 -17 -38 0
-20 -6 -31 -20 -35 -17 -5 -20 -15 -20 -68 l0 -62 155 0 155 0 0 62 c0 53 -3
63 -20 68 -14 4 -20 15 -20 35 0 16 -4 32 -10 35 -5 3 -10 15 -10 25 0 10 -9
22 -20 25 -19 6 -20 15 -20 150 0 198 19 201 23 3 l3 -153 2 154 2 154 36 31
c36 31 36 33 29 83 -6 45 -10 53 -36 62 -23 8 -29 16 -29 40 0 36 7 37 93 20
l57 -12 0 -266 c0 -152 5 -282 10 -303 26 -91 104 -154 255 -205 71 -24 95
-27 220 -27 120 -1 151 2 215 22 151 48 220 96 259 182 19 42 21 65 21 318 l0
272 25 10 c13 5 47 12 75 16 l50 7 0 -32 c0 -26 -5 -34 -29 -42 -26 -9 -30
-17 -36 -62 -7 -50 -7 -52 28 -82 l36 -31 3 -157 c2 -86 0 -157 -4 -157 -5 0
-8 -9 -8 -19 0 -11 -4 -23 -10 -26 -5 -3 -10 -19 -10 -35 0 -20 -6 -31 -20
-35 -17 -5 -20 -15 -20 -68 l0 -62 155 0 155 0 0 62 c0 53 -3 63 -20 68 -14 4
-20 15 -20 35 0 17 -7 33 -17 38 -10 6 -14 16 -10 26 4 9 3 16 -1 16 -4 0 -6
52 -4 115 2 63 7 115 11 115 16 0 19 -13 11 -36 -6 -15 -6 -34 1 -51 10 -27
11 -27 21 -8 7 11 18 25 25 30 8 6 17 35 20 66 l5 55 -46 24 c-45 24 -46 26
-46 71 0 44 2 47 30 53 26 5 35 15 56 63 31 70 24 91 -40 122 l-45 22 -3 110
c-2 60 1 109 6 109 5 0 2 7 -5 16 -11 14 -11 18 4 29 10 7 17 26 17 44 0 24
-4 31 -20 31 -11 0 -20 4 -20 9 0 4 9 20 20 34 26 33 25 45 -5 53 -14 3 -23
10 -20 14 2 4 -6 5 -19 3 -19 -4 -25 0 -30 21 -8 33 -26 34 -26 1 0 -19 -5
-25 -21 -25 -13 0 -18 4 -13 12 4 7 3 8 -5 4 -6 -4 -9 -12 -6 -17 4 -5 -3 -9
-14 -9 -11 0 -25 -9 -31 -20 -8 -15 -6 -21 9 -29 10 -6 21 -20 24 -31 4 -16 0
-20 -19 -20 -21 0 -24 -5 -24 -34 0 -19 6 -36 13 -39 10 -4 14 -35 16 -120 l2
-115 -48 -6 c-26 -4 -60 -9 -75 -12 l-28 -6 0 176 0 176 -122 1 c-97 1 -116 3
-89 10 26 8 32 14 28 30 -3 12 0 22 9 26 8 3 11 9 8 14 -6 10 72 86 98 94 9 3
19 17 22 30 4 16 14 25 26 25 26 0 33 15 15 34 -9 8 -11 17 -6 21 5 3 16 19
25 35 8 17 11 28 6 25 -13 -8 -8 39 5 47 6 5 3 8 -7 8 -10 0 -18 6 -18 14 0 8
-5 16 -10 18 -6 2 -12 14 -15 27 -2 13 -7 26 -11 30 -4 3 -4 -2 -1 -11 12 -33
-18 -19 -47 22 -10 14 -16 17 -13 8 4 -10 2 -18 -3 -18 -6 0 -10 8 -11 18 0
10 -3 12 -6 5 -2 -7 -15 -13 -29 -13 -18 0 -22 4 -18 18 5 16 5 16 -6 0 -6
-10 -16 -18 -23 -18 -7 0 -6 4 3 10 9 6 10 10 3 10 -6 0 -15 -4 -18 -10 -10
-16 -33 -12 -55 10 -11 11 -20 17 -20 13 0 -5 -5 -1 -10 7 -5 8 -20 15 -32 15
-13 0 -23 5 -23 12 0 6 -4 15 -9 20 -5 5 -6 3 -2 -4 7 -13 -4 -17 -31 -14 -7
1 -13 -3 -13 -10 0 -6 -7 -9 -15 -5 -8 3 -15 1 -15 -4 0 -6 -7 -10 -16 -10
-12 0 -14 8 -9 43 5 33 3 46 -9 56 -20 17 -21 41 -1 41 21 0 19 12 -5 33 -24
20 -31 21 -47 2z m-42 -195 c13 -8 19 -21 19 -45 0 -30 -3 -35 -23 -35 -13 0
-50 -9 -83 -20 -69 -24 -84 -21 -84 17 0 34 24 71 54 83 30 12 94 12 117 0z
m258 -5 c31 -15 49 -55 43 -92 -4 -28 -13 -28 -87 -3 -32 11 -69 20 -82 20
-20 0 -23 5 -23 35 0 28 5 38 23 45 34 14 95 12 126 -5z m185 -47 c54 -13 86
-48 86 -93 0 -20 -3 -35 -7 -33 -50 25 -95 42 -129 46 -34 3 -42 8 -42 26 -2
46 -5 61 -16 68 -13 9 52 0 108 -14z m-655 -2 c9 -11 9 -15 -1 -19 -10 -4 -10
-8 2 -16 8 -5 11 -13 7 -17 -4 -4 -3 -12 2 -18 7 -8 -8 -11 -47 -11 -38 0 -71
-7 -100 -21 l-42 -22 -6 23 c-10 42 27 87 86 103 51 15 86 14 99 -2z m288 -22
c-9 -9 -28 6 -21 18 4 6 10 6 17 -1 6 -6 8 -13 4 -17z m3 -29 c0 -8 -7 -15
-15 -15 -16 0 -20 12 -8 23 11 12 23 8 23 -8z m0 -29 c0 -2 -7 -6 -15 -10 -8
-3 -15 -1 -15 4 0 6 7 10 15 10 8 0 15 -2 15 -4z m-110 -146 c0 -5 -4 -10 -10
-10 -5 0 -10 5 -10 10 0 6 5 10 10 10 6 0 10 -4 10 -10z m220 6 c0 -3 -4 -8
-10 -11 -5 -3 -10 -1 -10 4 0 6 5 11 10 11 6 0 10 -2 10 -4z m-430 -46 c0 -5
-2 -10 -4 -10 -3 0 -8 5 -11 10 -3 6 -1 10 4 10 6 0 11 -4 11 -10z m790 -505
l0 -285 -160 0 -160 0 0 27 c0 39 -37 110 -70 133 -16 11 -42 23 -59 26 l-31
7 0 188 0 189 240 0 240 0 0 -285z m-1176 149 c13 -5 16 -23 16 -89 0 -92 4
-88 -77 -100 l-43 -7 0 101 0 101 44 0 c24 0 51 -3 60 -6z m46 -84 c0 -53 -4
-90 -10 -90 -6 0 -10 37 -10 90 0 53 4 90 10 90 6 0 10 -37 10 -90z m1400 -6
l0 -97 -37 7 c-21 3 -44 6 -50 6 -10 0 -13 25 -13 90 l0 90 50 0 50 0 0 -96z
m17 -56 c-2 -29 -3 -6 -3 52 0 58 1 81 3 53 2 -29 2 -77 0 -105z m33 52 c0
-60 -4 -100 -10 -100 -6 0 -10 40 -10 100 0 60 4 100 10 100 6 0 10 -40 10
-100z m-1482 -272 l-3 -83 -50 -27 c-27 -15 -54 -28 -58 -28 -4 0 -6 44 -5 98
l3 97 45 12 c74 19 71 22 68 -69z m32 8 c0 -41 -4 -78 -10 -81 -6 -4 -10 23
-10 74 0 47 4 81 10 81 6 0 10 -31 10 -74z m1363 68 l37 -7 0 -93 0 -94 -50
25 -50 25 0 75 c0 81 -2 79 63 69z m54 -156 c-2 -29 -3 -8 -3 47 0 55 1 79 3
53 2 -26 2 -71 0 -100z m33 36 c0 -56 -4 -94 -10 -94 -6 0 -10 40 -10 101 0
64 4 98 10 94 6 -3 10 -48 10 -101z m-50 -301 l0 -123 -50 0 -50 0 0 149 0
149 50 -27 50 -26 0 -122z m-1434 -110 c-4 -9 -24 -13 -61 -13 l-55 0 0 113 0
114 58 24 57 25 3 -125 c1 -69 0 -131 -2 -138z m1451 45 c-2 -35 -3 -7 -3 62
0 69 1 97 3 63 2 -35 2 -91 0 -125z m33 57 c0 -70 -4 -115 -10 -115 -6 0 -10
45 -10 115 0 70 4 115 10 115 6 0 10 -45 10 -115z m-702 -282 c24 -18 65 -37
98 -44 l57 -13 -36 -12 c-109 -38 -272 -41 -407 -6 l-65 16 50 11 c28 7 64 19
81 28 39 20 90 77 109 124 l15 35 28 -53 c16 -30 46 -68 70 -86z m-857 15 c30
-8 48 -8 78 0 28 9 47 9 70 1 43 -15 40 -30 -4 -16 -25 7 -45 7 -73 -1 -28 -9
-47 -9 -75 0 -27 8 -47 8 -72 1 -19 -6 -35 -8 -35 -4 0 6 32 20 69 30 2 1 21
-4 42 -11z m1461 -4 c15 -4 41 -1 59 5 32 11 109 -3 109 -20 0 -4 -16 -2 -35
4 -25 7 -45 7 -73 -1 -28 -9 -47 -9 -75 0 -27 8 -47 8 -72 1 -19 -6 -35 -7
-35 -3 0 13 52 29 75 24 11 -2 32 -7 47 -10z m-1446 -51 c16 -3 46 -1 65 4 35
10 99 -1 99 -16 0 -5 -16 -4 -35 2 -27 8 -45 8 -71 -2 -27 -10 -42 -10 -70 -1
-34 12 -61 10 -96 -5 -10 -4 -18 -3 -18 2 0 13 61 32 80 26 8 -3 29 -7 46 -10z
m1509 4 c37 12 105 -1 105 -20 0 -5 -8 -6 -17 -2 -36 15 -63 17 -97 5 -28 -9
-43 -9 -70 1 -26 10 -44 10 -71 2 -19 -6 -35 -7 -35 -2 0 16 64 25 107 15 29
-6 54 -6 78 1z"/>
<path d="M2768 2686 c-2 -13 -11 -22 -26 -24 -18 -3 -23 -8 -19 -23 5 -19 4
-20 -20 -4 -14 10 -29 13 -34 8 -4 -4 5 -17 21 -28 43 -29 46 -45 7 -45 -39 1
-69 22 -67 47 4 30 1 43 -10 43 -5 0 -10 -7 -10 -16 0 -11 -6 -13 -19 -9 -24
7 -37 -11 -13 -20 16 -6 16 -7 0 -16 -26 -14 -22 -29 8 -29 14 0 23 -4 19 -10
-3 -6 7 -18 24 -28 17 -9 31 -22 31 -28 0 -17 -29 -25 -49 -14 -23 12 -35 1
-20 -17 9 -9 8 -13 0 -13 -6 0 -11 -4 -11 -10 0 -5 6 -10 14 -10 7 0 17 -10
21 -22 l7 -23 7 25 c4 16 15 25 29 26 12 1 27 6 34 11 10 8 21 3 41 -18 l28
-29 -25 0 c-29 0 -44 -33 -26 -55 10 -12 9 -15 -4 -15 -9 0 -16 5 -16 10 0 6
-10 10 -22 10 -19 0 -20 -2 -8 -10 13 -9 13 -12 -2 -21 -18 -10 -25 -30 -10
-28 19 3 33 -2 27 -10 -3 -5 -1 -12 5 -16 6 -3 13 1 16 10 4 10 16 15 33 13
23 -3 26 0 26 30 0 20 5 32 13 32 7 0 10 -4 7 -10 -10 -16 15 -50 38 -51 20 0
19 -2 -5 -11 -27 -9 -39 -28 -18 -28 6 0 10 -10 10 -21 0 -17 3 -19 14 -10 11
9 15 9 19 -1 4 -10 8 -10 16 2 5 8 7 18 4 23 -3 4 1 22 8 39 11 27 10 32 -4
43 -25 18 -21 44 8 57 32 14 41 49 26 98 -15 51 -14 67 8 98 22 32 36 82 22
82 -5 0 -13 -5 -17 -11 -5 -8 -9 -8 -14 1 -16 26 -34 -97 -23 -158 12 -66 8
-82 -18 -82 -40 0 -67 80 -35 102 5 4 11 19 12 35 1 15 2 38 3 51 0 12 7 22
16 22 13 0 13 3 -1 26 -9 14 -23 23 -30 20 -8 -3 -11 0 -8 8 3 8 -4 16 -15 19
-15 4 -21 -1 -23 -17z"/>
<path d="M2460 1656 c-7 -14 -10 -36 -8 -49 5 -24 3 -25 -29 -20 -20 4 -33 1
-33 -5 0 -17 42 -42 71 -42 15 0 30 -6 33 -12 5 -10 7 -10 12 0 3 6 21 12 40
12 38 0 74 15 74 30 0 6 -16 10 -35 10 -32 0 -35 2 -29 24 15 59 -68 104 -96
52z m87 -22 c3 -8 2 -22 -3 -31 -4 -10 -8 -22 -8 -27 -1 -5 -8 -11 -16 -13
-13 -4 -13 -3 0 6 8 6 10 11 5 11 -7 0 -9 14 -7 34 5 39 -12 56 -27 27 -13
-23 -10 -62 4 -74 6 -5 4 -7 -5 -4 -8 2 -14 10 -12 16 1 6 -2 11 -8 11 -5 0
-10 13 -10 28 0 49 69 62 87 16z"/>
<path d="M2730 3311 c0 -6 4 -13 10 -16 6 -3 7 1 4 9 -7 18 -14 21 -14 7z"/>
<path d="M2006 3223 c-6 -14 -5 -15 5 -6 7 7 10 15 7 18 -3 3 -9 -2 -12 -12z"/>
<path d="M1967 3115 c-6 -15 10 -32 20 -21 4 3 1 6 -5 6 -6 0 -9 7 -6 15 4 8
4 15 1 15 -3 0 -7 -7 -10 -15z"/>
<path d="M0 625 l0 -625 3750 0 3750 0 0 625 0 625 -3750 0 -3750 0 0 -625z"/>
</g>
</svg>
